<?xml version="1.0" standalone="no"?>
<!DOCTYPE svg PUBLIC "-//W3C//DTD SVG 20010904//EN"
 "http://www.w3.org/TR/2001/REC-SVG-20010904/DTD/svg10.dtd">
<svg version="1.0" xmlns="http://www.w3.org/2000/svg"
 width="378.000000pt" height="370.000000pt" viewBox="0 0 378.000000 370.000000"
 preserveAspectRatio="xMidYMid meet">

<g transform="translate(0.000000,370.000000) scale(0.100000,-0.100000)"
fill="#000000" stroke="none">
<path d="M2289 2869 c86 -15 147 -63 172 -137 8 -24 9 -24 4 7 -12 77 -97 141
-185 140 l-45 -1 54 -9z"/>
<path d="M2101 2696 c-2 -33 38 -103 75 -131 42 -32 114 -58 146 -53 21 4 20
5 -7 12 -95 24 -185 94 -204 158 -5 19 -10 25 -10 14z"/>
<path d="M1563 2520 c-94 -22 -245 -127 -339 -236 -50 -58 -124 -157 -124
-166 0 -2 33 6 73 20 52 17 97 24 162 26 61 1 97 6 111 16 18 13 67 75 242
306 l34 44 -64 -1 c-34 -1 -77 -4 -95 -9z"/>
<path d="M2358 2523 c7 -3 16 -2 19 1 4 3 -2 6 -13 5 -11 0 -14 -3 -6 -6z"/>
<path d="M2273 2024 c-27 -41 -78 -122 -115 -179 -77 -117 -82 -140 -47 -227
15 -36 23 -84 27 -151 l5 -98 34 48 c56 78 125 211 155 299 41 118 47 221 19
313 -12 39 -24 71 -26 71 -2 0 -26 -34 -52 -76z"/>
</g>
</svg>
