<?xml version="1.0" encoding="UTF-8"?>
<svg id="Layer_1" data-name="Layer 1" xmlns="http://www.w3.org/2000/svg" viewBox="0 0 697 390">
  <defs>
    <style>
      .cls-1 {
        fill: #cd842d;
        font-family: PeaceSans, 'Peace Sans';
        font-size: 94.97px;
      }

      .cls-2 {
        stroke-linecap: round;
      }

      .cls-2, .cls-3 {
        fill: #f1d1af;
        stroke: #1d242b;
        stroke-miterlimit: 10;
        stroke-width: 3px;
      }
    </style>
  </defs>
  <line class="cls-2" x1="14.35" y1="382.11" x2="668" y2="382.11"/>
  <g>
    <g>
      <text class="cls-1" transform="translate(60.74 292.39) rotate(-67.92)"><tspan x="0" y="0">S</tspan></text>
      <text class="cls-1" transform="translate(80.61 241.52) rotate(-56.91)"><tspan x="0" y="0">T</tspan></text>
      <text class="cls-1" transform="translate(113.23 189.58) rotate(-43.97)"><tspan x="0" y="0">U</tspan></text>
      <text class="cls-1" transform="translate(165.03 138.99) rotate(-29.88)"><tspan x="0" y="0">D</tspan></text>
      <text class="cls-1" transform="translate(228.16 103.23) rotate(-17.21)"><tspan x="0" y="0">E</tspan></text>
      <text class="cls-1" transform="translate(283.68 84.54) rotate(-4.24)"><tspan x="0" y="0">N</tspan></text>
      <text class="cls-1" transform="translate(359.76 79.38) rotate(9.16)"><tspan x="0" y="0">T</tspan></text>
      <text class="cls-1" transform="translate(421.09 90.68) rotate(16.88)"><tspan x="0" y="0"> </tspan></text>
      <text class="cls-1" transform="translate(438.33 95.88) rotate(20.37)"><tspan x="0" y="0"> </tspan></text>
      <text class="cls-1" transform="translate(455.28 97.48) rotate(31.61)"><tspan x="0" y="0">M</tspan></text>
      <text class="cls-1" transform="translate(538.51 152.64) rotate(44.45)"><tspan x="0" y="0">I</tspan></text>
      <text class="cls-1" transform="translate(563.99 174.41) rotate(55.18)"><tspan x="0" y="0">N</tspan></text>
      <text class="cls-1" transform="translate(607.61 236.77) rotate(69.59)"><tspan x="0" y="0">D</tspan></text>
    </g>
    <g>
      <path class="cls-2" d="M242.62,313.94s-37.77,2.18-53.02-31.23c0,0-17.8-11.03-5.25-26.72,0,0-9.74-36.86,26.89-45.49,0,0,3.3-32.16,35.46-28.63,0,0,16.86-32.94,55.69-23.53,0,0,17.65-14.51,34.9-3.53,0,0,20.79-14.12,35.69,5.88,0,0,22.75-9.02,35.69,10.59,0,0,35.3-3.53,47.45,34.9,0,0,24.71,7.45,20.79,35.3,0,0,18.43,3.53,13.33,20.39,0,0,15.29,9.02,9.8,23.53,0,0,10.61,10.2,1.19,24.71,0,0,7.05,19.61-9.43,32.16,0,0-7.06,15.69-25.1,18.82,0,0-36.47,2.75-51.37-9.8,0,0-18.04,12.55-31.77,2.35,0,0-29.19,7.45-41.07-5.88,0,0-14.23,9.41-23.64,5.88,0,0-48.17,20.6-76.25-39.7Z"/>
      <path class="cls-2" d="M227.49,231.52s-2.75-40,37.65-38.04"/>
      <path class="cls-2" d="M314.94,185.64s-32.16-24.45-57.26,7.77"/>
      <path class="cls-2" d="M318.86,171.52s2.76,7.02-9.8,10.57"/>
      <path class="cls-3" d="M201.21,248.78s3.53,9.8,15.69,2.35c0,0-24.31,15.29,3.92,38.43"/>
      <path class="cls-2" d="M350.63,167.21s4.73,21.98-16.26,37.68c-5.52,4.13-8.17,11.2-6.87,17.96,.51,2.65,1.47,5.57,3.12,8.68"/>
      <path class="cls-2" d="M357.69,231.52s2.35-64.32,50.59-36.08"/>
      <path class="cls-2" d="M386.71,171.52s-10.85,2.24-10.72,19.35"/>
      <path class="cls-2" d="M309.07,204.07s-9.81,13.33-1.57,38.82"/>
      <path class="cls-2" d="M289.17,216.17s10.51-3.81,15.08,9.53"/>
      <path class="cls-2" d="M242.62,312.61s8.85-27.43,25.33-23.05c0,0,7.25-21.65,26.37-19.01,0,0,13.03,5.93,24.81,6.59,0,0,23.54-37.24,67.59-5.6"/>
      <path class="cls-2" d="M428.3,285.3s-17.87,35.89-51.72,13.77"/>
      <path class="cls-2" d="M329.65,280.64s15.37,37.36,53.32,22.26"/>
      <path class="cls-2" d="M346.09,300.5s-13.7,12.94-37.02,6"/>
      <path class="cls-2" d="M357.69,316.03s12.47,19.12,44.75,7.91"/>
      <path class="cls-2" d="M327.18,330.53s13.19,8.62,36.56-8.79"/>
      <path class="cls-2" d="M456.8,250.12s13.84,8.98,7.25,30.53"/>
      <path class="cls-2" d="M477.89,293.57s3.23-13.46-12.06-20.05"/>
      <path class="cls-2" d="M472,304.52c-.37-.03-2.35,10.52-16.52,11.51,0,0-5.01,9.89,10.35,20.76"/>
      <path class="cls-2" d="M244.88,242.9s20.41-4.65,20.26-15.52c0,0-11.36-3.12-13.67-14.91"/>
    </g>
  </g>
</svg>